<svg width="17" height="16" viewBox="0 0 17 16" fill="none" xmlns="http://www.w3.org/2000/svg">
<path d="M15.7607 4.38068C15.711 4.22554 15.6163 4.08866 15.4887 3.9874C15.361 3.88615 15.2062 3.82507 15.0438 3.81193L12.7176 3.61505L11.8101 1.49943C11.746 1.35111 11.64 1.22479 11.505 1.13604C11.37 1.04729 11.212 1 11.0504 1C10.8888 1 10.7308 1.04729 10.5958 1.13604C10.4608 1.22479 10.3548 1.35111 10.2907 1.49943L9.38321 3.61568L7.05633 3.81193C6.89476 3.82491 6.74065 3.88544 6.61344 3.9859C6.48623 4.08636 6.39162 4.22225 6.34155 4.37641C6.29148 4.53058 6.28818 4.69612 6.33208 4.85216C6.37597 5.00819 6.4651 5.14773 6.58821 5.25318L8.34821 6.75318L7.82133 8.9863C7.78429 9.14283 7.79417 9.3068 7.84975 9.45774C7.90532 9.60869 8.00413 9.73992 8.13383 9.83505C8.26506 9.93143 8.42179 9.98697 8.58442 9.99476C8.74706 10.0025 8.90837 9.96221 9.04821 9.8788L11.0482 8.6913L13.0482 9.8788C13.188 9.96221 13.3494 10.0025 13.512 9.99476C13.6746 9.98697 13.8314 9.93143 13.9626 9.83505C14.0923 9.73997 14.1912 9.60875 14.2468 9.45779C14.3024 9.30683 14.3122 9.14283 14.2751 8.9863L13.7482 6.75318L15.5076 5.25318C15.6314 5.14914 15.7216 5.01069 15.7666 4.85536C15.8117 4.70004 15.8096 4.53483 15.7607 4.38068ZM13.0195 6.06818C12.9043 6.16575 12.8184 6.29334 12.7714 6.43678C12.7244 6.58021 12.7181 6.73387 12.7532 6.88068L13.2101 8.81818L11.4738 7.7863C11.3457 7.70991 11.1993 7.66957 11.0501 7.66957C10.9009 7.66957 10.7545 7.70991 10.6263 7.7863L8.89008 8.81193L9.34696 6.87443C9.38255 6.72769 9.37655 6.57394 9.32963 6.43042C9.28271 6.28691 9.19673 6.1593 9.08133 6.06193L7.56508 4.77318L9.57071 4.60318C9.71956 4.59069 9.86221 4.5379 9.98333 4.45047C10.1045 4.36304 10.1995 4.24428 10.2582 4.10693L11.0501 2.26443L11.8401 4.10693C11.8989 4.2442 11.994 4.36289 12.1151 4.4503C12.2362 4.53771 12.3788 4.59056 12.5276 4.60318L14.5332 4.77318L13.0195 6.06818ZM6.15383 7.85318L2.65383 11.3532C2.56001 11.447 2.43276 11.4997 2.30008 11.4997C2.1674 11.4997 2.04015 11.447 1.94633 11.3532C1.85251 11.2594 1.7998 11.1321 1.7998 10.9994C1.7998 10.8667 1.85251 10.7395 1.94633 10.6457L5.44633 7.14568C5.54015 7.05186 5.6674 6.99915 5.80008 6.99915C5.93276 6.99915 6.06001 7.05186 6.15383 7.14568C6.24765 7.2395 6.30036 7.36675 6.30036 7.49943C6.30036 7.63211 6.24765 7.75936 6.15383 7.85318ZM7.15383 11.3532L3.65383 14.8532C3.60738 14.8996 3.55223 14.9365 3.49153 14.9616C3.43083 14.9868 3.36578 14.9997 3.30008 14.9997C3.23439 14.9997 3.16933 14.9868 3.10863 14.9616C3.04794 14.9365 2.99279 14.8996 2.94633 14.8532C2.89988 14.8067 2.86303 14.7516 2.83789 14.6909C2.81274 14.6302 2.7998 14.5651 2.7998 14.4994C2.7998 14.4337 2.81274 14.3687 2.83789 14.308C2.86303 14.2473 2.89988 14.1921 2.94633 14.1457L6.44633 10.6457C6.54015 10.5519 6.6674 10.4991 6.80008 10.4991C6.93276 10.4991 7.06001 10.5519 7.15383 10.6457C7.24765 10.7395 7.30036 10.8667 7.30036 10.9994C7.30036 11.1321 7.24765 11.2594 7.15383 11.3532ZM11.6538 10.6457C11.7003 10.6921 11.7372 10.7473 11.7624 10.808C11.7875 10.8687 11.8005 10.9337 11.8005 10.9994C11.8005 11.0651 11.7875 11.1302 11.7624 11.1909C11.7372 11.2516 11.7003 11.3067 11.6538 11.3532L8.15383 14.8532C8.10738 14.8996 8.05223 14.9365 7.99153 14.9616C7.93083 14.9868 7.86578 14.9997 7.80008 14.9997C7.73439 14.9997 7.66933 14.9868 7.60863 14.9616C7.54794 14.9365 7.49279 14.8996 7.44633 14.8532C7.39988 14.8067 7.36303 14.7516 7.33789 14.6909C7.31274 14.6302 7.2998 14.5651 7.2998 14.4994C7.2998 14.4337 7.31274 14.3687 7.33789 14.308C7.36303 14.2473 7.39988 14.1921 7.44633 14.1457L10.9463 10.6457C10.9928 10.5992 11.0479 10.5623 11.1086 10.5371C11.1693 10.512 11.2344 10.499 11.3001 10.499C11.3658 10.499 11.4309 10.512 11.4916 10.5371C11.5523 10.5623 11.6074 10.5992 11.6538 10.6457Z" fill="#FDD835"/>
</svg>
