<svg width="16" height="16" viewBox="0 0 16 16" fill="none" xmlns="http://www.w3.org/2000/svg">
<path d="M14.5 6C14.5003 5.95351 14.4939 5.90722 14.4812 5.8625L13.5844 2.725C13.5241 2.51682 13.3981 2.33373 13.2252 2.20306C13.0523 2.07239 12.8417 2.00116 12.625 2H3.375C3.15827 2.00116 2.94773 2.07239 2.77482 2.20306C2.60191 2.33373 2.47591 2.51682 2.41563 2.725L1.51938 5.8625C1.50646 5.90719 1.49994 5.95348 1.5 6V7C1.5 7.38811 1.59036 7.7709 1.76393 8.11803C1.9375 8.46517 2.18951 8.76713 2.5 9V13C2.5 13.2652 2.60536 13.5196 2.79289 13.7071C2.98043 13.8946 3.23478 14 3.5 14H12.5C12.7652 14 13.0196 13.8946 13.2071 13.7071C13.3946 13.5196 13.5 13.2652 13.5 13V9C13.8105 8.76713 14.0625 8.46517 14.2361 8.11803C14.4096 7.7709 14.5 7.38811 14.5 7V6ZM3.375 3H12.625L13.3387 5.5H2.66313L3.375 3ZM6.5 6.5H9.5V7C9.5 7.39782 9.34197 7.77936 9.06066 8.06066C8.77936 8.34196 8.39783 8.5 8 8.5C7.60218 8.5 7.22064 8.34196 6.93934 8.06066C6.65804 7.77936 6.5 7.39782 6.5 7V6.5ZM5.5 6.5V7C5.5 7.39782 5.34197 7.77936 5.06066 8.06066C4.77936 8.34196 4.39783 8.5 4 8.5C3.60218 8.5 3.22064 8.34196 2.93934 8.06066C2.65804 7.77936 2.5 7.39782 2.5 7V6.5H5.5ZM12.5 13H3.5V9.45C3.6646 9.48318 3.83209 9.49993 4 9.5C4.38811 9.5 4.7709 9.40964 5.11803 9.23607C5.46517 9.0625 5.76713 8.81049 6 8.5C6.23287 8.81049 6.53483 9.0625 6.88197 9.23607C7.2291 9.40964 7.61189 9.5 8 9.5C8.38811 9.5 8.7709 9.40964 9.11803 9.23607C9.46517 9.0625 9.76713 8.81049 10 8.5C10.2329 8.81049 10.5348 9.0625 10.882 9.23607C11.2291 9.40964 11.6119 9.5 12 9.5C12.1679 9.49993 12.3354 9.48318 12.5 9.45V13ZM12 8.5C11.6022 8.5 11.2206 8.34196 10.9393 8.06066C10.658 7.77936 10.5 7.39782 10.5 7V6.5H13.5V7C13.5 7.39782 13.342 7.77936 13.0607 8.06066C12.7794 8.34196 12.3978 8.5 12 8.5Z" fill="#FDD835"/>
</svg>
