<svg width="17" height="16" viewBox="0 0 17 16" fill="none" xmlns="http://www.w3.org/2000/svg">
<path d="M14.1001 4.50087H11.9076C11.932 4.48025 11.957 4.46025 11.9807 4.43837C12.1705 4.26973 12.3235 4.06374 12.4301 3.83328C12.5367 3.60282 12.5945 3.35285 12.6001 3.099C12.6083 2.82129 12.5597 2.54484 12.4572 2.28661C12.3547 2.02839 12.2005 1.79383 12.0041 1.59735C11.8076 1.40087 11.5731 1.24661 11.3149 1.14404C11.0567 1.04146 10.7803 0.992745 10.5026 1.00087C10.2486 1.00634 9.99855 1.06418 9.76798 1.17075C9.5374 1.27733 9.33131 1.43035 9.1626 1.62025C8.92915 1.89081 8.73936 2.19615 8.6001 2.52525C8.46083 2.19615 8.27105 1.89081 8.0376 1.62025C7.86889 1.43035 7.66279 1.27733 7.43222 1.17075C7.20165 1.06418 6.95155 1.00634 6.6976 1.00087C6.41989 0.992745 6.14345 1.04146 5.88526 1.14404C5.62706 1.24661 5.39255 1.40087 5.19613 1.59735C4.99971 1.79383 4.84551 2.02839 4.74302 2.28661C4.64052 2.54484 4.59189 2.82129 4.6001 3.099C4.60565 3.35285 4.66353 3.60282 4.7701 3.83328C4.87667 4.06374 5.02965 4.26973 5.21947 4.43837C5.24322 4.459 5.26822 4.479 5.2926 4.50087H3.1001C2.83488 4.50087 2.58053 4.60623 2.39299 4.79377C2.20545 4.9813 2.1001 5.23566 2.1001 5.50087V7.50087C2.1001 7.76609 2.20545 8.02044 2.39299 8.20798C2.58053 8.39552 2.83488 8.50087 3.1001 8.50087V12.5009C3.1001 12.7661 3.20545 13.0204 3.39299 13.208C3.58053 13.3955 3.83488 13.5009 4.1001 13.5009H13.1001C13.3653 13.5009 13.6197 13.3955 13.8072 13.208C13.9947 13.0204 14.1001 12.7661 14.1001 12.5009V8.50087C14.3653 8.50087 14.6197 8.39552 14.8072 8.20798C14.9947 8.02044 15.1001 7.76609 15.1001 7.50087V5.50087C15.1001 5.23566 14.9947 4.9813 14.8072 4.79377C14.6197 4.60623 14.3653 4.50087 14.1001 4.50087ZM9.9126 2.28275C9.99177 2.19532 10.0882 2.12521 10.1957 2.07681C10.3033 2.02841 10.4197 2.00277 10.5376 2.0015H10.5682C10.7065 2.00236 10.8431 2.03081 10.9702 2.08517C11.0973 2.13953 11.2123 2.21871 11.3084 2.31807C11.4045 2.41743 11.4798 2.53498 11.5299 2.66381C11.58 2.79265 11.6038 2.93019 11.6001 3.06837C11.5988 3.18631 11.5732 3.30271 11.5248 3.41026C11.4764 3.51782 11.4063 3.61421 11.3188 3.69337C10.7257 4.21837 9.74135 4.40337 9.13135 4.46837C9.20635 3.8065 9.4126 2.84462 9.9126 2.28275ZM5.90697 2.30525C6.10069 2.11155 6.36304 2.00217 6.63697 2.00087H6.6676C6.78553 2.00214 6.90193 2.02779 7.00949 2.07619C7.11704 2.12458 7.21343 2.1947 7.2926 2.28212C7.81697 2.87462 8.00197 3.85712 8.06697 4.46462C7.45947 4.40212 6.47697 4.21462 5.88447 3.69025C5.79705 3.61108 5.72693 3.51469 5.67853 3.40714C5.63014 3.29958 5.60449 3.18318 5.60322 3.06525C5.59935 2.92477 5.62405 2.78497 5.67583 2.65433C5.72762 2.52368 5.80541 2.40492 5.90447 2.30525H5.90697ZM3.1001 5.50087H8.1001V7.50087H3.1001V5.50087ZM4.1001 8.50087H8.1001V12.5009H4.1001V8.50087ZM13.1001 12.5009H9.1001V8.50087H13.1001V12.5009ZM14.1001 7.50087H9.1001V5.50087H14.1001V7.50087Z" fill="#FDD835"/>
</svg>
