<svg width="17" height="16" viewBox="0 0 17 16" fill="none" xmlns="http://www.w3.org/2000/svg">
<path d="M9.14991 11.25C9.14991 11.3983 9.10592 11.5433 9.02351 11.6667C8.9411 11.79 8.82396 11.8861 8.68692 11.9429C8.54987 11.9997 8.39907 12.0145 8.25359 11.9856C8.1081 11.9567 7.97447 11.8852 7.86958 11.7803C7.76469 11.6754 7.69326 11.5418 7.66432 11.3963C7.63538 11.2508 7.65023 11.1 7.707 10.963C7.76376 10.8259 7.85989 10.7088 7.98323 10.6264C8.10657 10.544 8.25157 10.5 8.39991 10.5C8.59882 10.5 8.78958 10.579 8.93024 10.7197C9.07089 10.8603 9.14991 11.0511 9.14991 11.25ZM8.39991 4.5C7.02116 4.5 5.89991 5.50938 5.89991 6.75V7C5.89991 7.13261 5.95258 7.25979 6.04635 7.35355C6.14012 7.44732 6.2673 7.5 6.39991 7.5C6.53251 7.5 6.65969 7.44732 6.75346 7.35355C6.84723 7.25979 6.89991 7.13261 6.89991 7V6.75C6.89991 6.0625 7.57303 5.5 8.39991 5.5C9.22678 5.5 9.89991 6.0625 9.89991 6.75C9.89991 7.4375 9.22678 8 8.39991 8C8.2673 8 8.14012 8.05268 8.04635 8.14645C7.95258 8.24022 7.89991 8.36739 7.89991 8.5V9C7.89991 9.13261 7.95258 9.25979 8.04635 9.35355C8.14012 9.44732 8.2673 9.5 8.39991 9.5C8.53251 9.5 8.65969 9.44732 8.75346 9.35355C8.84723 9.25979 8.89991 9.13261 8.89991 9V8.955C10.0399 8.74563 10.8999 7.83625 10.8999 6.75C10.8999 5.50938 9.77866 4.5 8.39991 4.5ZM14.8999 8C14.8999 9.28558 14.5187 10.5423 13.8045 11.6112C13.0902 12.6801 12.0751 13.5132 10.8873 14.0052C9.69963 14.4972 8.3927 14.6259 7.13182 14.3751C5.87094 14.1243 4.71275 13.5052 3.80371 12.5962C2.89467 11.6872 2.2756 10.529 2.0248 9.26809C1.774 8.00721 1.90272 6.70028 2.39469 5.51256C2.88666 4.32484 3.71978 3.30968 4.7887 2.59545C5.85762 1.88122 7.11433 1.5 8.39991 1.5C10.1233 1.50182 11.7755 2.18722 12.9941 3.40582C14.2127 4.62441 14.8981 6.27665 14.8999 8ZM13.8999 8C13.8999 6.9122 13.5773 5.84883 12.973 4.94436C12.3686 4.03989 11.5097 3.33494 10.5047 2.91866C9.49967 2.50238 8.39381 2.39346 7.32691 2.60568C6.26001 2.8179 5.28001 3.34172 4.51082 4.11091C3.74163 4.8801 3.21781 5.86011 3.00559 6.927C2.79337 7.9939 2.90229 9.09977 3.31857 10.1048C3.73485 11.1098 4.4398 11.9687 5.34427 12.5731C6.24874 13.1774 7.31211 13.5 8.39991 13.5C9.85809 13.4983 11.2561 12.9184 12.2872 11.8873C13.3183 10.8562 13.8983 9.45818 13.8999 8Z" fill="#FDD835"/>
</svg>
